<svg width="33" height="33" viewBox="0 0 33 33" fill="none" xmlns="http://www.w3.org/2000/svg">
<path d="M27.4102 5.74152H5.41016C4.87972 5.74152 4.37102 5.95223 3.99594 6.3273C3.62087 6.70238 3.41016 7.21108 3.41016 7.74152V25.7415C3.41016 26.2719 3.62087 26.7807 3.99594 27.1557C4.37102 27.5308 4.87972 27.7415 5.41016 27.7415H27.4102C27.9406 27.7415 28.4493 27.5308 28.8244 27.1557C29.1994 26.7807 29.4102 26.2719 29.4102 25.7415V7.74152C29.4102 7.21108 29.1994 6.70238 28.8244 6.3273C28.4493 5.95223 27.9406 5.74152 27.4102 5.74152ZM27.4102 25.7415H5.41016V7.74152H27.4102V25.7415ZM22.4102 11.7415C22.4102 13.3328 21.778 14.8589 20.6528 15.9842C19.5276 17.1094 18.0015 17.7415 16.4102 17.7415C14.8189 17.7415 13.2927 17.1094 12.1675 15.9842C11.0423 14.8589 10.4102 13.3328 10.4102 11.7415C10.4102 11.4763 10.5155 11.2219 10.703 11.0344C10.8906 10.8469 11.1449 10.7415 11.4102 10.7415C11.6754 10.7415 11.9297 10.8469 12.1173 11.0344C12.3048 11.2219 12.4102 11.4763 12.4102 11.7415C12.4102 12.8024 12.8316 13.8198 13.5817 14.5699C14.3319 15.3201 15.3493 15.7415 16.4102 15.7415C17.471 15.7415 18.4884 15.3201 19.2386 14.5699C19.9887 13.8198 20.4102 12.8024 20.4102 11.7415C20.4102 11.4763 20.5155 11.2219 20.703 11.0344C20.8906 10.8469 21.1449 10.7415 21.4102 10.7415C21.6754 10.7415 21.9297 10.8469 22.1173 11.0344C22.3048 11.2219 22.4102 11.4763 22.4102 11.7415Z" fill="#003D29"/>
</svg>
