<svg width="33" height="33" viewBox="0 0 33 33" fill="none" xmlns="http://www.w3.org/2000/svg">
<g clip-path="url(#clip0_2_6)">
<path d="M13.4342 27.4257C13.4342 27.9202 13.2876 28.4035 13.0129 28.8146C12.7382 29.2258 12.3477 29.5462 11.8909 29.7354C11.4341 29.9246 10.9314 29.9741 10.4465 29.8777C9.96153 29.7812 9.51607 29.5431 9.16644 29.1935C8.81681 28.8439 8.5787 28.3984 8.48224 27.9134C8.38578 27.4285 8.43529 26.9258 8.62451 26.469C8.81372 26.0122 9.13416 25.6217 9.54528 25.347C9.9564 25.0723 10.4398 24.9257 10.9342 24.9257C11.5972 24.9257 12.2331 25.1891 12.702 25.658C13.1708 26.1268 13.4342 26.7627 13.4342 27.4257ZM23.9342 24.9257C23.4398 24.9257 22.9564 25.0723 22.5453 25.347C22.1342 25.6217 21.8137 26.0122 21.6245 26.469C21.4353 26.9258 21.3858 27.4285 21.4822 27.9134C21.5787 28.3984 21.8168 28.8439 22.1664 29.1935C22.5161 29.5431 22.9615 29.7812 23.4465 29.8777C23.9314 29.9741 24.4341 29.9246 24.8909 29.7354C25.3477 29.5462 25.7382 29.2258 26.0129 28.8146C26.2876 28.4035 26.4342 27.9202 26.4342 27.4257C26.4342 26.7627 26.1708 26.1268 25.702 25.658C25.2331 25.1891 24.5972 24.9257 23.9342 24.9257ZM30.368 9.86697L26.9567 20.9545C26.7389 21.6715 26.2957 22.2992 25.6929 22.7444C25.0901 23.1896 24.3598 23.4285 23.6105 23.4257H11.3005C10.5403 23.4233 9.80149 23.1745 9.19461 22.7169C8.58773 22.2592 8.14551 21.6171 7.9342 20.887L3.66045 5.92572H2.4342C2.03638 5.92572 1.65485 5.76769 1.37354 5.48638C1.09224 5.20508 0.934204 4.82354 0.934204 4.42572C0.934204 4.0279 1.09224 3.64636 1.37354 3.36506C1.65485 3.08376 2.03638 2.92572 2.4342 2.92572H4.0367C4.57963 2.9274 5.10738 3.10507 5.54078 3.43209C5.97418 3.75911 6.28985 4.21784 6.44045 4.73947L7.3517 7.92572H28.9342C29.169 7.9257 29.4004 7.98078 29.61 8.08653C29.8196 8.19228 30.0014 8.34574 30.1409 8.53457C30.2804 8.7234 30.3736 8.94233 30.413 9.17375C30.4524 9.40516 30.437 9.64261 30.368 9.86697ZM26.903 10.9257H8.20795L10.8192 20.0632C10.8491 20.1677 10.9123 20.2597 10.9991 20.3251C11.0859 20.3905 11.1917 20.4258 11.3005 20.4257H23.6105C23.7175 20.4259 23.8217 20.3918 23.9079 20.3284C23.9941 20.2649 24.0576 20.1755 24.0892 20.0732L26.903 10.9257Z" fill="#003D29"/>
</g>
<defs>
<clipPath id="clip0_2_6">
<rect width="32" height="32" fill="white" transform="translate(0.934204 0.42572)"/>
</clipPath>
</defs>
</svg>
