<svg width="32" height="33" viewBox="0 0 32 33" fill="none" xmlns="http://www.w3.org/2000/svg">
<path d="M21.0613 13.5612L18.125 16.5L21.065 19.4387C21.3468 19.7205 21.5051 20.1027 21.5051 20.5012C21.5051 20.8998 21.3468 21.282 21.065 21.5637C20.7832 21.8455 20.401 22.0039 20.0025 22.0039C19.604 22.0039 19.2218 21.8455 18.94 21.5637L16 18.625L13.0613 21.565C12.7795 21.8468 12.3973 22.0051 11.9988 22.0051C11.6002 22.0051 11.218 21.8468 10.9363 21.565C10.6545 21.2832 10.4962 20.901 10.4962 20.5025C10.4962 20.104 10.6545 19.7218 10.9363 19.44L13.875 16.5L10.9388 13.5612C10.7992 13.4217 10.6885 13.2561 10.613 13.0738C10.5375 12.8915 10.4987 12.6961 10.4987 12.4987C10.4987 12.1002 10.657 11.718 10.9388 11.4362C11.2205 11.1545 11.6027 10.9961 12.0013 10.9961C12.3998 10.9961 12.782 11.1545 13.0638 11.4362L16 14.375L18.9388 11.435C19.2205 11.1532 19.6027 10.9949 20.0013 10.9949C20.3998 10.9949 20.782 11.1532 21.0638 11.435C21.3455 11.7168 21.5039 12.099 21.5039 12.4975C21.5039 12.896 21.3455 13.2782 21.0638 13.56L21.0613 13.5612ZM29.5 16.5C29.5 19.17 28.7082 21.7801 27.2248 24.0002C25.7414 26.2203 23.633 27.9506 21.1662 28.9724C18.6994 29.9942 15.985 30.2615 13.3663 29.7406C10.7475 29.2197 8.34207 27.934 6.45406 26.0459C4.56606 24.1579 3.28031 21.7525 2.7594 19.1337C2.2385 16.515 2.50585 13.8006 3.52763 11.3338C4.54942 8.86697 6.27974 6.75856 8.49981 5.27516C10.7199 3.79176 13.33 3 16 3C19.5792 3.00397 23.0107 4.42756 25.5416 6.95844C28.0724 9.48932 29.496 12.9208 29.5 16.5ZM26.5 16.5C26.5 14.4233 25.8842 12.3932 24.7304 10.6665C23.5767 8.9398 21.9368 7.59399 20.0182 6.79926C18.0996 6.00454 15.9884 5.79661 13.9516 6.20175C11.9148 6.6069 10.0438 7.60693 8.57538 9.07538C7.10693 10.5438 6.10691 12.4148 5.70176 14.4516C5.29662 16.4884 5.50455 18.5996 6.29927 20.5182C7.09399 22.4368 8.4398 24.0767 10.1665 25.2304C11.8932 26.3842 13.9233 27 16 27C18.7839 26.997 21.4529 25.8898 23.4213 23.9213C25.3898 21.9528 26.497 19.2839 26.5 16.5Z" fill="#003D29"/>
</svg>
